<svg width="524.205" height="79.901" viewBox="0 0 524.205 79.901" xmlns="http://www.w3.org/2000/svg"><g id="svgGroup" stroke-linecap="round" fill-rule="evenodd" font-size="9pt" stroke="#ffffff" stroke-width="0.25mm" fill="#ffffff" style="stroke:#ffffff;stroke-width:0.25mm;fill:#ffffff"><path d="M 124.302 79.9 L 124.302 24.9 C 124.302 19.7 118.702 16 111.502 16 C 105.002 16 100.502 16.9 97.402 20.8 C 95.102 17.6 92.102 16 86.002 16 C 80.002 16 75.002 17.4 72.502 20.1 L 72.502 16 L 51.702 16 L 51.702 79.9 L 72.502 79.9 L 72.502 32.2 C 72.502 32.1 72.602 32 72.702 32 L 77.402 32 C 77.502 32 77.602 32.1 77.602 32.2 L 77.602 79.9 L 98.402 79.9 L 98.402 32.2 C 98.402 32.1 98.502 32 98.602 32 L 103.502 32 C 103.602 32 103.702 32.1 103.702 32.2 L 103.702 79.9 L 124.302 79.9 Z M 46.702 72 L 46.702 47.9 C 46.702 42.6 43.202 40 36.302 40 L 21.002 40 C 20.902 40 20.802 39.9 20.802 39.8 L 20.802 32.2 C 20.802 32.1 20.902 32 21.002 32 L 25.702 32 C 25.802 32 25.902 32.1 25.902 32.2 L 25.902 35.9 L 46.702 35.9 L 46.702 24.1 C 46.702 18.7 43.202 16 36.302 16 L 10.402 16 C 3.502 16 0.002 18.7 0.002 24.1 L 0.002 47.9 C 0.002 53.3 3.502 56 10.402 56 L 25.702 56 C 25.802 56 25.902 56.1 25.902 56.2 L 25.902 63.8 C 25.902 63.9 25.802 64 25.702 64 L 21.002 64 C 20.902 64 20.802 63.9 20.802 63.8 L 20.802 60 L 0.002 60 L 0.002 72 C 0.002 77.3 3.502 79.9 10.402 79.9 L 36.302 79.9 C 43.202 79.9 46.702 77.3 46.702 72 Z M 524.202 72 L 524.202 47.9 C 524.202 42.6 520.702 40 513.802 40 L 498.502 40 C 498.402 40 498.302 39.9 498.302 39.8 L 498.302 32.2 C 498.302 32.1 498.402 32 498.502 32 L 503.202 32 C 503.302 32 503.402 32.1 503.402 32.2 L 503.402 35.9 L 524.202 35.9 L 524.202 24.1 C 524.202 18.7 520.702 16 513.802 16 L 487.902 16 C 481.002 16 477.502 18.7 477.502 24.1 L 477.502 47.9 C 477.502 53.3 481.002 56 487.902 56 L 503.202 56 C 503.302 56 503.402 56.1 503.402 56.2 L 503.402 63.8 C 503.402 63.9 503.302 64 503.202 64 L 498.502 64 C 498.402 64 498.302 63.9 498.302 63.8 L 498.302 60 L 477.502 60 L 477.502 72 C 477.502 77.3 481.002 79.9 487.902 79.9 L 513.802 79.9 C 520.702 79.9 524.202 77.3 524.202 72 Z M 420.902 79.9 L 420.902 53.2 C 420.902 50.1 419.202 48.4 415.702 47.9 C 419.102 47.5 420.802 45.8 420.802 42.7 L 420.802 24.1 C 420.802 18.7 417.402 16 410.502 16 L 374.202 16 L 374.202 79.9 L 395.002 79.9 L 395.002 54.3 L 399.902 54.3 C 400.002 54.3 400.102 54.4 400.102 54.5 L 400.102 79.9 L 420.902 79.9 Z M 369.102 79.9 L 369.102 24.1 C 369.102 18.7 365.602 16 358.702 16 L 332.802 16 C 325.902 16 322.402 18.7 322.402 24.1 L 322.402 35.9 L 343.202 35.9 L 343.202 32.2 C 343.202 32.1 343.302 32 343.402 32 L 348.102 32 C 348.202 32 348.302 32.1 348.302 32.2 L 348.302 40 L 332.802 40 C 325.902 40 322.402 42.6 322.402 47.9 L 322.402 72 C 322.402 77.3 325.902 79.9 332.802 79.9 L 369.102 79.9 Z M 472.502 79.9 L 472.502 0 L 451.702 0 L 451.702 16 L 436.202 16 C 429.302 16 425.802 18.7 425.802 24.1 L 425.802 72 C 425.802 77.3 429.002 79.9 436.202 79.9 L 472.502 79.9 Z M 266.002 72 L 266.002 24.1 C 266.002 18.7 262.502 16 255.602 16 L 240.102 16 L 240.102 0 L 219.302 0 L 219.302 79.9 L 255.602 79.9 C 262.502 79.9 266.002 77.3 266.002 72 Z M 175.902 72 L 175.902 24.1 C 175.902 18.7 172.402 16 165.502 16 L 139.602 16 C 132.702 16 129.202 18.7 129.202 24.1 L 129.202 72 C 129.202 77.3 132.702 79.9 139.602 79.9 L 165.502 79.9 C 172.402 79.9 175.902 77.3 175.902 72 Z M 317.602 72 L 317.602 24.1 C 317.602 18.7 314.102 16 307.202 16 L 281.302 16 C 274.402 16 270.902 18.7 270.902 24.1 L 270.902 72 C 270.902 77.3 274.402 79.9 281.302 79.9 L 307.202 79.9 C 314.102 79.9 317.602 77.3 317.602 72 Z M 215.202 79.9 L 215.202 64 L 201.702 64 L 201.702 16 L 180.902 16 L 180.902 79.9 L 215.202 79.9 Z M 245.002 64 L 240.102 64 L 240.102 32 L 245.002 32 C 245.102 32 245.202 32.1 245.202 32.2 L 245.202 63.8 C 245.202 63.9 245.102 64 245.002 64 Z M 451.702 64 L 446.802 64 C 446.702 64 446.602 63.9 446.602 63.8 L 446.602 32.2 C 446.602 32.1 446.702 32 446.802 32 L 451.702 32 L 451.702 64 Z M 154.902 64 L 150.202 64 C 150.102 64 150.002 63.9 150.002 63.8 L 150.002 32.2 C 150.002 32.1 150.102 32 150.202 32 L 154.902 32 C 155.002 32 155.102 32.1 155.102 32.2 L 155.102 63.8 C 155.102 63.9 155.002 64 154.902 64 Z M 296.602 64 L 291.902 64 C 291.802 64 291.702 63.9 291.702 63.8 L 291.702 32.2 C 291.702 32.1 291.802 32 291.902 32 L 296.602 32 C 296.702 32 296.802 32.1 296.802 32.2 L 296.802 63.8 C 296.802 63.9 296.702 64 296.602 64 Z M 348.302 64 L 343.402 64 C 343.302 64 343.202 63.9 343.202 63.8 L 343.202 54.2 C 343.202 54.1 343.302 54 343.402 54 L 348.302 54 L 348.302 64 Z M 399.902 41.6 L 395.002 41.6 L 395.002 32 L 399.902 32 C 400.002 32 400.102 32.1 400.102 32.2 L 400.102 41.4 C 400.102 41.5 400.002 41.6 399.902 41.6 Z" vector-effect="non-scaling-stroke"/></g></svg>